<svg xmlns="http://www.w3.org/2000/svg" viewBox="0 0 640 360" role="img" aria-label="Comunidade próxima a plantas industriais com fumaça e moradias no entorno">
  <defs><linearGradient id="sky" x1="0" x2="0" y1="0" y2="1"><stop stop-color="#aeb8b3"/><stop offset="1" stop-color="#e7ebe7"/></linearGradient><filter id="blur"><feGaussianBlur stdDeviation="5"/></filter><filter id="noise"><feTurbulence type="fractalNoise" baseFrequency=".6" numOctaves="2"/><feComponentTransfer><feFuncA type="table" tableValues="0 .08"/></feComponentTransfer></filter></defs>
  <rect width="640" height="360" fill="url(#sky)"/><rect width="640" height="360" filter="url(#noise)"/>
  <g opacity=".94"><rect x="332" y="98" width="110" height="136" fill="#4f5b55"/><rect x="352" y="58" width="20" height="176" fill="#2d3934"/><rect x="410" y="42" width="22" height="192" fill="#2d3934"/><rect x="462" y="120" width="72" height="114" fill="#3e4a45"/><path d="M360 58 C310 34,360 5,302 -28" stroke="#7c8580" stroke-width="36" fill="none" opacity=".6" filter="url(#blur)"/><path d="M421 42 C370 18,426 -10,368 -42" stroke="#707a75" stroke-width="38" fill="none" opacity=".55" filter="url(#blur)"/></g>
  <path d="M0 222 C80 202,145 230,225 210 C305 190,390 220,480 196 C555 176,600 190,640 178 L640 360 L0 360 Z" fill="#766d57" opacity=".42"/>
  <g opacity=".96"><rect x="35" y="222" width="90" height="58" fill="#a36b4e"/><polygon points="35,222 82,188 125,222" fill="#664535"/><rect x="145" y="235" width="78" height="45" fill="#be8a63"/><polygon points="145,235 184,206 223,235" fill="#76513d"/><rect x="238" y="220" width="105" height="60" fill="#946149"/><polygon points="238,220 290,184 343,220" fill="#5f4332"/></g>
  <rect y="280" width="640" height="80" fill="#1d2d28" opacity=".24"/>
</svg>
