<svg xmlns="http://www.w3.org/2000/svg" viewBox="0 0 640 360" role="img" aria-label="Terreno urbano com descarte irregular de resíduos e tambores">
  <defs><linearGradient id="bg" x1="0" y1="0" x2="0" y2="1"><stop stop-color="#d9e3de"/><stop offset="1" stop-color="#eef3ef"/></linearGradient><filter id="noise"><feTurbulence type="fractalNoise" baseFrequency=".75" numOctaves="2"/><feComponentTransfer><feFuncA type="table" tableValues="0 .06"/></feComponentTransfer></filter></defs>
  <rect width="640" height="360" fill="url(#bg)"/><rect width="640" height="360" filter="url(#noise)" opacity=".5"/>
  <rect y="230" width="640" height="130" fill="#7b715c" opacity=".35"/>
  <g opacity=".72"><rect x="22" y="130" width="96" height="96" fill="#9b694f"/><polygon points="22,130 70,98 118,130" fill="#6c4a38"/><rect x="132" y="150" width="72" height="78" fill="#be8b64"/><polygon points="132,150 168,125 204,150" fill="#74523e"/><rect x="515" y="128" width="88" height="98" fill="#8d6049"/><polygon points="515,128 560,99 603,128" fill="#634739"/></g>
  <g transform="translate(260 205)"><ellipse cx="0" cy="0" rx="42" ry="12" fill="#7b2f20"/><rect x="-42" y="0" width="84" height="72" fill="#b65337"/><ellipse cx="0" cy="72" rx="42" ry="12" fill="#65271e"/><path d="M-32 18 H32 M-32 43 H32" stroke="#5a2b22" stroke-width="6" opacity=".5"/><path d="M0 16 L21 52 H-21 Z" fill="#f6c56b"/><rect x="-4" y="28" width="8" height="17" fill="#5a2b22"/><circle cx="0" cy="55" r="4" fill="#5a2b22"/></g>
  <g transform="translate(360 225)"><ellipse cx="0" cy="0" rx="36" ry="10" fill="#4d5a50"/><rect x="-36" y="0" width="72" height="58" fill="#738077"/><ellipse cx="0" cy="58" rx="36" ry="10" fill="#455147"/><path d="M-26 18 H26 M-26 36 H26" stroke="#354039" stroke-width="5" opacity=".42"/></g>
  <g opacity=".75"><path d="M95 276 L145 258 L195 286 L122 306 Z" fill="#dfd5c8"/><path d="M420 272 L500 250 L582 286 L520 318 Z" fill="#cfc6b8"/><rect x="70" y="246" width="54" height="22" rx="5" fill="#556356"/><rect x="146" y="251" width="62" height="18" rx="5" fill="#b5784b"/></g>
  <path d="M0 318 C120 292,230 328,350 304 C455 284,540 314,640 292 L640 360 L0 360 Z" fill="#263a31" opacity=".18"/>
</svg>
