<svg xmlns="http://www.w3.org/2000/svg" viewBox="0 0 640 360" role="img" aria-label="Área urbana com solo exposto e árvores removidas próxima a pátio industrial">
  <defs><linearGradient id="sky" x1="0" y1="0" x2="0" y2="1"><stop stop-color="#d3dfd9"/><stop offset="1" stop-color="#eef3ef"/></linearGradient><filter id="noise"><feTurbulence type="fractalNoise" baseFrequency=".65" numOctaves="2"/><feComponentTransfer><feFuncA type="table" tableValues="0 .06"/></feComponentTransfer></filter></defs>
  <rect width="640" height="360" fill="url(#sky)"/><rect width="640" height="360" filter="url(#noise)" opacity=".45"/>
  <rect y="220" width="640" height="140" fill="#9b7c5b" opacity=".64"/>
  <path d="M0 235 C80 220,165 260,250 236 C340 210,430 250,640 220 L640 360 L0 360 Z" fill="#6f5c48" opacity=".32"/>
  <g opacity=".75"><rect x="430" y="92" width="128" height="120" fill="#59665f"/><rect x="452" y="62" width="18" height="150" fill="#34413a"/><rect x="512" y="48" width="22" height="164" fill="#34413a"/><path d="M462 60 C418 42,450 18,405 -8" stroke="#6f7a73" stroke-width="26" fill="none" opacity=".55"/></g>
  <g><ellipse cx="105" cy="266" rx="42" ry="13" fill="#4b3428"/><rect x="99" y="205" width="12" height="60" fill="#5d3d2d"/><path d="M74 210 C106 188,142 192,170 214" stroke="#2f6b4f" stroke-width="18" fill="none"/><path d="M92 178 C124 152,164 160,198 180" stroke="#3b7b58" stroke-width="20" fill="none" opacity=".9"/></g>
  <g opacity=".95"><ellipse cx="244" cy="275" rx="34" ry="9" fill="#4b3428"/><rect x="238" y="232" width="12" height="44" fill="#5d3d2d"/><ellipse cx="330" cy="278" rx="42" ry="12" fill="#4b3428"/><rect x="324" y="238" width="12" height="40" fill="#5d3d2d"/><ellipse cx="390" cy="282" rx="44" ry="12" fill="#4b3428"/></g>
  <g transform="translate(175 250)" opacity=".85"><rect x="0" y="0" width="72" height="24" rx="6" fill="#b77745"/><circle cx="18" cy="27" r="8" fill="#303a32"/><circle cx="56" cy="27" r="8" fill="#303a32"/><rect x="50" y="-18" width="28" height="18" fill="#8a5b3d"/></g>
</svg>
