<svg xmlns="http://www.w3.org/2000/svg" viewBox="0 0 640 360" role="img" aria-label="Moradores plantando árvores em calçada de bairro urbano">
  <defs><linearGradient id="sky" x1="0" y1="0" x2="0" y2="1"><stop stop-color="#dce8e0"/><stop offset="1" stop-color="#f4f7f2"/></linearGradient><filter id="noise"><feTurbulence type="fractalNoise" baseFrequency=".7" numOctaves="2"/><feComponentTransfer><feFuncA type="table" tableValues="0 .05"/></feComponentTransfer></filter></defs>
  <rect width="640" height="360" fill="url(#sky)"/><rect width="640" height="360" filter="url(#noise)" opacity=".45"/>
  <rect y="236" width="640" height="124" fill="#b8b4a3" opacity=".58"/>
  <rect y="290" width="640" height="70" fill="#5a6257" opacity=".35"/>
  <g opacity=".6"><rect x="430" y="118" width="92" height="110" fill="#59665f"/><rect x="452" y="86" width="16" height="142" fill="#34413a"/><rect x="510" y="98" width="14" height="130" fill="#34413a"/></g>
  <g transform="translate(94 206)"><circle cx="0" cy="0" r="18" fill="#8b5a3c"/><rect x="-9" y="18" width="18" height="64" rx="8" fill="#2f6b4f"/><line x1="-10" y1="48" x2="-42" y2="70" stroke="#2f6b4f" stroke-width="9" stroke-linecap="round"/><line x1="10" y1="46" x2="38" y2="68" stroke="#2f6b4f" stroke-width="9" stroke-linecap="round"/></g>
  <g transform="translate(220 214)"><circle cx="0" cy="0" r="17" fill="#6b4a36"/><rect x="-9" y="16" width="18" height="60" rx="8" fill="#355f49"/><line x1="10" y1="42" x2="44" y2="24" stroke="#355f49" stroke-width="9" stroke-linecap="round"/><line x1="-9" y1="42" x2="-36" y2="24" stroke="#355f49" stroke-width="9" stroke-linecap="round"/></g>
  <g transform="translate(324 215)"><rect x="-6" y="-32" width="12" height="92" fill="#5d3d2d"/><circle cx="-18" cy="-38" r="34" fill="#2f6b4f"/><circle cx="18" cy="-42" r="38" fill="#3a8058"/><circle cx="36" cy="-15" r="30" fill="#2f6b4f"/><circle cx="0" cy="-8" r="36" fill="#4e956a"/></g>
  <g transform="translate(500 235)" opacity=".88"><path d="M0 0 C18 -28, 58 -20, 74 5 C88 30, 64 54, 34 54 C4 54 -16 28 0 0" fill="#2f6b4f"/><rect x="30" y="45" width="8" height="45" fill="#5d3d2d"/></g>
  <path d="M58 306 C160 284,250 318,344 296 C440 274,540 310,640 286" stroke="#e8f1ea" stroke-width="6" opacity=".45" fill="none"/>
</svg>
