<svg xmlns="http://www.w3.org/2000/svg" viewBox="0 0 640 360" role="img" aria-label="Moradias periféricas próximas a área industrial com poeira e fumaça no ar">
  <defs>
    <linearGradient id="sky" x1="0" x2="0" y1="0" y2="1"><stop stop-color="#bec9c5"/><stop offset="1" stop-color="#edf1ed"/></linearGradient>
    <linearGradient id="dust" x1="0" x2="1"><stop stop-color="#8b7e61" stop-opacity=".38"/><stop offset="1" stop-color="#3b453f" stop-opacity=".52"/></linearGradient>
    <filter id="soft"><feGaussianBlur stdDeviation="5"/></filter>
    <filter id="noise"><feTurbulence type="fractalNoise" baseFrequency=".8" numOctaves="2" stitchTiles="stitch"/><feColorMatrix type="saturate" values="0"/><feComponentTransfer><feFuncA type="table" tableValues="0 .08"/></feComponentTransfer></filter>
  </defs>
  <rect width="640" height="360" fill="url(#sky)"/>
  <rect width="640" height="360" filter="url(#noise)" opacity=".45"/>
  <path d="M0 210 C70 190,125 205,198 188 C280 168,370 186,452 160 C520 139,588 154,640 140 L640 360 L0 360 Z" fill="#77826e" opacity=".35"/>
  <g opacity=".95">
    <rect x="418" y="104" width="112" height="132" fill="#4e5b55"/>
    <rect x="438" y="66" width="18" height="170" fill="#2b3933"/>
    <rect x="494" y="48" width="20" height="188" fill="#2b3933"/>
    <rect x="540" y="128" width="60" height="108" fill="#3d4a44"/>
    <path d="M450 68 C400 44, 440 22, 390 -18" stroke="#77827d" stroke-width="30" fill="none" opacity=".72" filter="url(#soft)"/>
    <path d="M506 48 C456 26, 515 8, 462 -32" stroke="#7e8884" stroke-width="34" fill="none" opacity=".64" filter="url(#soft)"/>
  </g>
  <rect y="244" width="640" height="116" fill="#6a6552" opacity=".23"/>
  <g>
    <rect x="30" y="208" width="96" height="66" fill="#a76b4d"/><polygon points="30,208 78,174 126,208" fill="#694635"/>
    <rect x="140" y="224" width="76" height="52" fill="#c08a63"/><polygon points="140,224 178,195 216,224" fill="#76513d"/>
    <rect x="232" y="212" width="105" height="64" fill="#9b644a"/><polygon points="232,212 286,177 337,212" fill="#5f4332"/>
    <rect x="344" y="230" width="62" height="45" fill="#c6976b"/><polygon points="344,230 375,207 406,230" fill="#73513a"/>
  </g>
  <path d="M0 236 C80 224,160 245,250 230 C350 214,450 230,640 210 L640 360 L0 360 Z" fill="url(#dust)" opacity=".9"/>
  <g opacity=".24" filter="url(#soft)"><ellipse cx="205" cy="262" rx="170" ry="45" fill="#b6a57d"/><ellipse cx="95" cy="238" rx="120" ry="35" fill="#b6a57d"/></g>
</svg>
