<svg xmlns="http://www.w3.org/2000/svg" viewBox="0 0 640 360" role="img" aria-label="Rua periférica alagada após chuva forte">
  <defs><linearGradient id="sky" x1="0" y1="0" x2="0" y2="1"><stop stop-color="#8fa1a6"/><stop offset="1" stop-color="#d7dfdc"/></linearGradient><linearGradient id="water" x1="0" y1="0" x2="1" y2="1"><stop stop-color="#657e83"/><stop offset="1" stop-color="#2d4f57"/></linearGradient><filter id="blur"><feGaussianBlur stdDeviation="2"/></filter></defs>
  <rect width="640" height="360" fill="url(#sky)"/>
  <g opacity=".88"><rect x="30" y="96" width="105" height="104" fill="#a56b4e"/><polygon points="30,96 82,58 135,96" fill="#604333"/><rect x="164" y="118" width="92" height="82" fill="#be8761"/><polygon points="164,118 210,85 256,118" fill="#724f3b"/><rect x="410" y="92" width="120" height="108" fill="#946148"/><polygon points="410,92 470,52 530,92" fill="#593e31"/></g>
  <path d="M0 182 C70 166,135 190,205 174 C290 154,370 186,450 162 C530 142,580 158,640 148 L640 360 L0 360 Z" fill="url(#water)" opacity=".92"/>
  <g opacity=".22" stroke="#e8f1ea" stroke-width="5" fill="none"><path d="M0 218 C82 194,160 238,245 214 C330 190,420 232,510 204 C575 184,612 197,640 190"/><path d="M0 272 C95 250,185 290,286 266 C390 242,500 278,640 248"/></g>
  <g transform="translate(250 224)"><rect x="0" y="24" width="116" height="34" rx="12" fill="#b75b38"/><path d="M20 24 L44 0 H82 L105 24 Z" fill="#c5754e"/><circle cx="30" cy="60" r="12" fill="#27322f"/><circle cx="88" cy="60" r="12" fill="#27322f"/><rect x="48" y="6" width="28" height="17" fill="#cdd8d6" opacity=".65"/></g>
  <g opacity=".75" stroke="#dfe8e4" stroke-width="3" stroke-linecap="round"><path d="M100 10 L86 66"/><path d="M170 0 L152 76"/><path d="M260 10 L245 92"/><path d="M352 2 L335 90"/><path d="M510 4 L495 88"/><path d="M590 0 L574 78"/></g>
  <rect y="320" width="640" height="40" fill="#1e332d" opacity=".28"/>
</svg>
