<svg xmlns="http://www.w3.org/2000/svg" viewBox="0 0 640 360" role="img" aria-label="Ilustração documental de comunidade próxima a indústria siderúrgica">
  <defs><linearGradient id="bg" x1="0" y1="0" x2="0" y2="1"><stop stop-color="#c7cec8"/><stop offset="1" stop-color="#7d8880"/></linearGradient><filter id="blur"><feGaussianBlur stdDeviation="5"/></filter></defs>
  <rect width="640" height="360" fill="url(#bg)"/>
  <rect y="180" width="640" height="180" fill="#39463e"/>
  <g opacity=".95"><rect x="340" y="92" width="58" height="150" fill="#26352d"/><rect x="415" y="58" width="38" height="184" fill="#344039"/><rect x="470" y="122" width="76" height="120" fill="#2a3831"/><rect x="555" y="74" width="28" height="168" fill="#3d463f"/><path d="M368 88 C320 35, 410 28, 382 -12" stroke="#f0f0ec" stroke-width="24" opacity=".42" fill="none" filter="url(#blur)"/><path d="M565 72 C530 30, 590 22, 575 -10" stroke="#f0f0ec" stroke-width="17" opacity=".3" fill="none" filter="url(#blur)"/></g>
  <g opacity=".9"><rect x="52" y="228" width="86" height="58" fill="#c8ae84"/><polygon points="42,228 95,190 150,228" fill="#6d4c34"/><rect x="158" y="238" width="74" height="50" fill="#b99b72"/><polygon points="150,238 195,210 240,238" fill="#6a4a32"/><rect x="254" y="226" width="70" height="61" fill="#c3ab86"/><polygon points="246,226 290,198 332,226" fill="#705038"/></g>
  <ellipse cx="220" cy="180" rx="185" ry="42" fill="#5f5b52" opacity=".34" filter="url(#blur)"/>
  <rect width="640" height="360" fill="#123524" opacity=".18"/>
</svg>