<svg xmlns="http://www.w3.org/2000/svg" viewBox="0 0 640 360" role="img" aria-label="Ilustração documental de ilha, pesca e pressão industrial no entorno">
  <defs><linearGradient id="sky" x1="0" y1="0" x2="0" y2="1"><stop stop-color="#b9d9d5"/><stop offset="1" stop-color="#6b9d9c"/></linearGradient><linearGradient id="water" x1="0" y1="0" x2="1" y2="1"><stop stop-color="#1f5b5d"/><stop offset="1" stop-color="#0b3032"/></linearGradient></defs>
  <rect width="640" height="360" fill="url(#sky)"/>
  <circle cx="515" cy="72" r="42" fill="#f6c56b" opacity=".82"/>
  <path d="M0 148 C105 120, 198 144, 283 112 C394 72, 495 118, 640 88 L640 0 L0 0 Z" fill="#e1c48e" opacity=".48"/>
  <rect y="165" width="640" height="195" fill="url(#water)"/>
  <path d="M0 220 C118 185, 235 236, 360 194 C480 154, 560 208, 640 174" stroke="#8bd0c4" stroke-width="18" opacity=".38" fill="none"/>
  <path d="M74 262 h145 l-26 32 H100z" fill="#123524" opacity=".85"/><rect x="132" y="222" width="18" height="42" fill="#123524"/><path d="M151 228 l58 32 h-58z" fill="#e8f1ea" opacity=".56"/>
  <g opacity=".55"><rect x="500" y="102" width="36" height="86" fill="#26352d"/><rect x="552" y="78" width="26" height="110" fill="#2d3c34"/></g>
  <rect width="640" height="360" fill="#123524" opacity=".14"/>
</svg>