<svg xmlns="http://www.w3.org/2000/svg" viewBox="0 0 640 360" role="img" aria-label="Ilustração demonstrativa de tambores com resíduos abandonados em área industrial">
  <defs><linearGradient id="bg" x1="0" y1="0" x2="1" y2="1"><stop stop-color="#dfe5dd"/><stop offset="1" stop-color="#9aa69d"/></linearGradient></defs>
  <rect width="640" height="360" fill="url(#bg)"/>
  <rect y="255" width="640" height="105" fill="#5a655d"/>
  <path d="M20 275 L620 230 L640 360 L0 360 Z" fill="#24392e" opacity=".6"/>
  <g transform="translate(120 115)">
    <ellipse cx="55" cy="0" rx="55" ry="16" fill="#4a5a50"/><rect x="0" y="0" width="110" height="110" fill="#6a6f66"/><ellipse cx="55" cy="110" rx="55" ry="16" fill="#47554d"/>
    <rect x="18" y="20" width="74" height="40" rx="3" fill="#f6c56b" opacity=".9"/><path d="M55 29 l22 40 H33z" fill="#C44A1C"/><text x="55" y="58" text-anchor="middle" font-size="30" fill="#fff" font-family="Arial" font-weight="900">!</text>
  </g>
  <g transform="translate(265 95)">
    <ellipse cx="55" cy="0" rx="55" ry="16" fill="#604d3b"/><rect x="0" y="0" width="110" height="135" fill="#8b7350"/><ellipse cx="55" cy="135" rx="55" ry="16" fill="#5d4e39"/>
    <path d="M30 126 C55 145, 80 130, 105 150" stroke="#0b1f1c" stroke-width="10" fill="none" opacity=".7"/>
  </g>
  <g transform="translate(410 145)">
    <ellipse cx="55" cy="0" rx="55" ry="16" fill="#344b3f"/><rect x="0" y="0" width="110" height="88" fill="#4b5f55"/><ellipse cx="55" cy="88" rx="55" ry="16" fill="#2d4035"/>
  </g>
  <circle cx="223" cy="266" r="22" fill="#0b1f1c" opacity=".7"/><path d="M205 266 C250 250, 286 288, 330 262" stroke="#0b1f1c" stroke-width="11" opacity=".38" fill="none"/>
  <rect width="640" height="360" fill="#123524" opacity=".14"/>
</svg>