<svg xmlns="http://www.w3.org/2000/svg" viewBox="0 0 640 360" role="img" aria-label="Ilustração demonstrativa de supressão de vegetação em perímetro industrial">
  <defs><linearGradient id="bg" x1="0" y1="0" x2="0" y2="1"><stop stop-color="#d9e4d7"/><stop offset="1" stop-color="#748c78"/></linearGradient></defs>
  <rect width="640" height="360" fill="url(#bg)"/>
  <rect y="210" width="640" height="150" fill="#314a38"/>
  <g opacity=".95">
    <rect x="395" y="80" width="40" height="165" fill="#303a33"/><rect x="455" y="110" width="58" height="135" fill="#26352d"/><rect x="535" y="58" width="28" height="187" fill="#39453d"/>
    <path d="M415 78 C380 38, 450 18, 428 -10" stroke="#f0f0eb" stroke-width="20" fill="none" opacity=".25"/>
  </g>
  <path d="M0 260 C120 225, 260 270, 390 235 C500 208, 575 230, 640 210 L640 360 L0 360 Z" fill="#1d3127" opacity=".65"/>
  <g opacity=".9">
    <rect x="88" y="210" width="22" height="90" fill="#6d4d2f"/><circle cx="100" cy="185" r="50" fill="#78a576"/><circle cx="135" cy="198" r="44" fill="#93ba90"/>
    <rect x="205" y="235" width="18" height="58" fill="#6d4d2f"/><circle cx="215" cy="220" r="38" fill="#608d65"/>
    <path d="M270 284 h95" stroke="#b98d60" stroke-width="18" stroke-linecap="round"/><path d="M295 276 l-23 35 M332 276 l22 34" stroke="#704c2c" stroke-width="8" stroke-linecap="round"/>
    <path d="M30 305 C85 285, 125 325, 170 300" stroke="#d0a15d" stroke-width="8" opacity=".7" fill="none"/>
  </g>
  <path d="M355 200 H640" stroke="#6b6e64" stroke-width="8" opacity=".55"/><path d="M360 180 H640" stroke="#6b6e64" stroke-width="4" opacity=".45"/>
  <rect width="640" height="360" fill="#123524" opacity=".12"/>
</svg>