<svg xmlns="http://www.w3.org/2000/svg" viewBox="0 0 640 360" role="img" aria-label="Ilustração demonstrativa de alagamento em via residencial">
  <defs><linearGradient id="sky" x1="0" y1="0" x2="0" y2="1"><stop stop-color="#d8e0df"/><stop offset="1" stop-color="#9fb0b4"/></linearGradient><linearGradient id="water" x1="0" y1="0" x2="1" y2="1"><stop stop-color="#3f7b89"/><stop offset="1" stop-color="#17333c"/></linearGradient></defs>
  <rect width="640" height="360" fill="url(#sky)"/>
  <g opacity=".86">
    <rect x="55" y="110" width="112" height="120" fill="#a67c57"/><polygon points="43,110 111,68 178,110" fill="#5a4030"/>
    <rect x="220" y="96" width="135" height="135" fill="#7e8a82"/><polygon points="210,96 288,55 365,96" fill="#49534d"/>
    <rect x="430" y="118" width="122" height="112" fill="#9c8a70"/><polygon points="420,118 491,78 565,118" fill="#604331"/>
    <rect x="93" y="150" width="28" height="64" fill="#123524" opacity=".45"/><rect x="270" y="136" width="32" height="74" fill="#123524" opacity=".45"/>
  </g>
  <path d="M0 218 C120 188, 245 240, 370 205 C485 174, 560 220, 640 198 L640 360 L0 360 Z" fill="url(#water)" opacity=".88"/>
  <path d="M0 278 C115 252, 250 296, 370 270 C500 238, 590 267, 640 248" stroke="#e8f1ea" stroke-width="12" opacity=".42" fill="none"/>
  <g transform="translate(75 257)" opacity=".9"><path d="M0 35 h118 l-12 -34 H22z" fill="#9d3c2f"/><circle cx="28" cy="38" r="14" fill="#2b3634"/><circle cx="93" cy="38" r="14" fill="#2b3634"/></g>
  <rect width="640" height="360" fill="#123524" opacity=".12"/>
</svg>