<svg xmlns="http://www.w3.org/2000/svg" viewBox="0 0 640 360" role="img" aria-label="Ilustração demonstrativa de poeira industrial sobre área residencial">
  <defs>
    <linearGradient id="sky" x1="0" y1="0" x2="0" y2="1"><stop stop-color="#d7ded8"/><stop offset="1" stop-color="#aeb9b2"/></linearGradient>
    <linearGradient id="ground" x1="0" y1="0" x2="1" y2="1"><stop stop-color="#4b5f55"/><stop offset="1" stop-color="#1d3127"/></linearGradient>
    <filter id="blur"><feGaussianBlur stdDeviation="5"/></filter>
  </defs>
  <rect width="640" height="360" fill="url(#sky)"/>
  <rect y="205" width="640" height="155" fill="url(#ground)"/>
  <g opacity=".9">
    <rect x="350" y="92" width="42" height="138" fill="#26352d"/>
    <rect x="406" y="62" width="36" height="168" fill="#2d3c34"/>
    <rect x="458" y="112" width="52" height="118" fill="#34443c"/>
    <rect x="525" y="82" width="24" height="148" fill="#2a3731"/>
    <path d="M370 90 C330 40, 405 30, 380 -5" stroke="#eef1ec" stroke-width="24" opacity=".45" fill="none" filter="url(#blur)"/>
    <path d="M536 80 C500 35, 568 28, 546 -10" stroke="#eef1ec" stroke-width="18" opacity=".33" fill="none" filter="url(#blur)"/>
  </g>
  <g opacity=".82">
    <rect x="55" y="218" width="92" height="62" rx="4" fill="#d9c2a0"/><polygon points="45,218 101,180 157,218" fill="#805f45"/>
    <rect x="168" y="232" width="80" height="52" rx="4" fill="#c9b189"/><polygon points="160,232 210,202 260,232" fill="#6b4f35"/>
    <rect x="272" y="224" width="70" height="58" rx="4" fill="#b99874"/><polygon points="264,224 307,196 350,224" fill="#705036"/>
    <rect x="85" y="245" width="18" height="35" fill="#123524" opacity=".55"/><rect x="198" y="252" width="16" height="31" fill="#123524" opacity=".55"/><rect x="298" y="247" width="15" height="34" fill="#123524" opacity=".55"/>
  </g>
  <g opacity=".42" filter="url(#blur)">
    <ellipse cx="170" cy="165" rx="150" ry="42" fill="#7a786f"/>
    <ellipse cx="245" cy="190" rx="190" ry="34" fill="#6b685f"/>
  </g>
  <path d="M0 320 C120 290, 210 330, 340 304 C470 278, 535 312, 640 290 L640 360 L0 360 Z" fill="#10271e" opacity=".35"/>
  <rect width="640" height="360" fill="#123524" opacity=".18"/>
</svg>